<svg xmlns="http://www.w3.org/2000/svg" version="1.1" xmlns:xlink="http://www.w3.org/1999/xlink" xmlns:svgjs="http://svgjs.com/svgjs" width="1920" height="560" preserveAspectRatio="none" viewBox="0 0 1920 560"><g mask="url(&quot;#SvgjsMask1085&quot;)" fill="none"><rect width="1920" height="560" x="0" y="0" fill="#0e2a47"></rect><path d="M0,528.067C142.443,564.974,282.441,709.177,415.819,647.027C544.171,587.219,516.319,391.428,572.337,261.378C626.765,135.019,766.492,28.632,740.371,-106.449C714.136,-242.122,562.673,-311.79,446.91,-387.25C355.646,-446.74,245.523,-452.015,145.176,-494.424C27.446,-544.18,-67.568,-681.611,-193.133,-657.749C-317.038,-634.203,-381.489,-493.606,-441.853,-382.868C-493.485,-288.15,-474.238,-174.761,-511.583,-73.554C-563.071,65.98,-756.578,182.198,-701.313,320.279C-647.15,455.605,-436.867,420.902,-297.109,462.31C-197.844,491.721,-100.221,502.1,0,528.067" fill="#0b2239"></path><path d="M1920 1210.726C2049.338 1204.272 2177.197 1197.592 2294.508 1142.746 2424.117 1082.15 2568.739 1013.481 2624.0860000000002 881.5450000000001 2679.195 750.178 2617.5860000000002 602.341 2578.7 465.293 2544.234 343.822 2486.224 235.839 2411.91 133.75799999999998 2331.375 23.129999999999995 2259.055-109.29399999999998 2129.136-152.25300000000004 1998.273-195.524 1861.107-129.77499999999998 1728.49-92.22199999999998 1594.569-54.29899999999998 1443.551-37.014999999999986 1351.987 67.81400000000002 1260.33 172.75 1254.216 323.83299999999997 1243.732 462.767 1233.833 593.94 1245.9389999999999 723.484 1293.245 846.23 1342.799 974.808 1401.56 1112.085 1520.6770000000001 1181.359 1638.437 1249.844 1783.943 1217.5149999999999 1920 1210.726" fill="#113255"></path></g><defs><mask id="SvgjsMask1085"><rect width="1920" height="560" fill="#ffffff"></rect></mask></defs></svg>