<svg xmlns="http://www.w3.org/2000/svg" version="1.1" xmlns:xlink="http://www.w3.org/1999/xlink" xmlns:svgjs="http://svgjs.com/svgjs" width="1440" height="560" preserveAspectRatio="none" viewBox="0 0 1440 560"><g mask="url(&quot;#SvgjsMask1002&quot;)" fill="none"><rect width="1440" height="560" x="0" y="0" fill="url(#SvgjsLinearGradient1003)"></rect><path d="M1440 0L1196.91 0L1440 160.56z" fill="rgba(255, 255, 255, .1)"></path><path d="M1196.91 0L1440 160.56L1440 232.69L917.6800000000001 0z" fill="rgba(255, 255, 255, .075)"></path><path d="M917.68 0L1440 232.69L1440 284.01L586.8 0z" fill="rgba(255, 255, 255, .05)"></path><path d="M586.8 0L1440 284.01L1440 426.31L504.53 0z" fill="rgba(255, 255, 255, .025)"></path><path d="M0 560L208.95 560L0 448.83z" fill="rgba(0, 0, 0, .1)"></path><path d="M0 448.83L208.95 560L757.44 560L0 238.66z" fill="rgba(0, 0, 0, .075)"></path><path d="M0 238.66000000000003L757.44 560L915.1300000000001 560L0 220.85000000000002z" fill="rgba(0, 0, 0, .05)"></path><path d="M0 220.85000000000002L915.1300000000001 560L1046.5300000000002 560L0 198.32000000000002z" fill="rgba(0, 0, 0, .025)"></path></g><defs><mask id="SvgjsMask1002"><rect width="1440" height="560" fill="#ffffff"></rect></mask><linearGradient x1="15.28%" y1="-39.29%" x2="84.72%" y2="139.29%" gradientUnits="userSpaceOnUse" id="SvgjsLinearGradient1003"><stop stop-color="#0e2a47" offset="0"></stop><stop stop-color="#00459e" offset="1"></stop></linearGradient></defs></svg>